#Comment line ignore any data following # character 
#Hierarchical Translation and Rotation (.htr) file 
[Header]	
#Header keywords are followed by a single value 
FileType HTR		#Single word string
DataType HTRS		#Translation followed by rotation and scale data
FileVersion 1		#integer
NumSegments 64		#integer
NumFrames 3		#integer
DataFrameRate 30		#integer, data frame rate in this file
EulerRotationOrder ZYX
CalibrationUnits mm
RotationUnits Degrees
GlobalAxisofGravity Y
BoneLengthAxis Y
ScaleFactor 1.00
[SegmentNames&Hierarchy]
#CHILD	PARENT
Pinger_Root GLOBAL
Pelvis Pinger_Root
L_Hip Pelvis
R_Hip Pelvis
Rear_Leg01 Pelvis
Spine1 Pelvis
L_Leg01 L_Hip
L_Leg02 L_Leg01
L_Leg03 L_Leg02
L_Foot L_Leg03
L_Toe1_01 L_Foot
L_Toe2_01 L_Foot
L_Toe3_01 L_Foot
planeAlignerLeft L_Foot
L_Toe1_02 L_Toe1_01
L_Toe1_03 L_Toe1_02
L_Toe2_02 L_Toe2_01
L_Toe2_03 L_Toe2_02
L_Toe3_02 L_Toe3_01
L_Toe3_03 L_Toe3_02
planeLockWeightLeft planeAlignerLeft
R_Leg01 R_Hip
R_Leg02 R_Leg01
R_Leg03 R_Leg02
R_Foot R_Leg03
planeAlignerRight R_Foot
R_Toe1_01 R_Foot
R_Toe2_01 R_Foot
R_Toe3_01 R_Foot
planeLockWeightRight planeAlignerRight
R_Toe1_02 R_Toe1_01
R_Toe1_03 R_Toe1_02
R_Toe2_02 R_Toe2_01
R_Toe2_03 R_Toe2_02
R_Toe3_02 R_Toe3_01
R_Toe3_03 R_Toe3_02
Rear_Leg02 Rear_Leg01
Rear_Leg03 Rear_Leg02
Rear_Leg04 Rear_Leg03
Rear_Foot Rear_Leg04
planeAlignerCenter Rear_Foot
Rear_Toe1_01 Rear_Foot
Rear_Toe2_01 Rear_Foot
Rear_Toe3_01 Rear_Foot
planeLockWeightCenter planeAlignerCenter
Rear_Toe1_02 Rear_Toe1_01
Rear_Toe1_03 Rear_Toe1_02
Rear_Toe2_02 Rear_Toe2_01
Rear_Toe2_03 Rear_Toe2_02
Rear_Toe3_02 Rear_Toe3_01
Rear_Toe3_03 Rear_Toe3_02
Back_Bone Spine1
Head Spine1
Motor_Bone Back_Bone
Ping_Mechanism Back_Bone
BN_LookIK Head
bottomMouth Head
L_Mouth01 Head
L_mouthFront Head
mouthGun Head
R_Mouth01 Head
R_mouthFront Head
TopMouth Head
weapon_bone Head
[BasePosition]
#SegmentName Tx, Ty, Tz, Rx, Ry, Rz, BoneLength
Pinger_Root 0.000000 0.000000 0.000000 -90.000000 0.000000 0.000000 10.000000 
Pelvis 0.000000 0.000000 0.000000 0.000000 0.000000 0.000000 10.000000 
L_Hip 0.000000 0.000000 0.000000 0.000000 0.000000 0.000000 10.000000 
R_Hip 0.000000 0.000000 0.000000 0.000000 0.000000 0.000000 10.000000 
Rear_Leg01 0.000000 0.000000 0.000000 0.000000 0.000000 0.000000 10.000000 
Spine1 0.000000 0.000000 0.000000 0.000000 0.000000 0.000000 10.000000 
L_Leg01 0.000000 0.000000 0.000000 0.000000 0.000000 0.000000 10.000000 
L_Leg02 0.000000 0.000000 0.000000 0.000000 0.000000 0.000000 10.000000 
L_Leg03 0.000000 0.000000 0.000000 0.000000 0.000000 0.000000 10.000000 
L_Foot 0.000000 0.000000 0.000000 0.000000 0.000000 0.000000 10.000000 
L_Toe1_01 0.000000 0.000000 0.000000 0.000000 0.000000 0.000000 10.000000 
L_Toe2_01 0.000000 0.000000 0.000000 0.000000 0.000000 0.000000 10.000000 
L_Toe3_01 0.000000 0.000000 0.000000 0.000000 0.000000 0.000000 10.000000 
planeAlignerLeft 0.000000 0.000000 0.000000 0.000000 0.000000 0.000000 10.000000 
L_Toe1_02 0.000000 0.000000 0.000000 0.000000 0.000000 0.000000 10.000000 
L_Toe1_03 0.000000 0.000000 0.000000 0.000000 0.000000 0.000000 10.000000 
L_Toe2_02 0.000000 0.000000 0.000000 0.000000 0.000000 0.000000 10.000000 
L_Toe2_03 0.000000 0.000000 0.000000 0.000000 0.000000 0.000000 10.000000 
L_Toe3_02 0.000000 0.000000 0.000000 0.000000 0.000000 0.000000 10.000000 
L_Toe3_03 0.000000 0.000000 0.000000 0.000000 0.000000 0.000000 10.000000 
planeLockWeightLeft 0.000000 0.000000 0.000000 0.000000 0.000000 0.000000 10.000000 
R_Leg01 0.000000 0.000000 0.000000 0.000000 0.000000 0.000000 10.000000 
R_Leg02 0.000000 0.000000 0.000000 0.000000 0.000000 0.000000 10.000000 
R_Leg03 0.000000 0.000000 0.000000 0.000000 0.000000 0.000000 10.000000 
R_Foot 0.000000 0.000000 0.000000 0.000000 0.000000 0.000000 10.000000 
planeAlignerRight 0.000000 0.000000 0.000000 0.000000 0.000000 0.000000 10.000000 
R_Toe1_01 0.000000 0.000000 0.000000 0.000000 0.000000 0.000000 10.000000 
R_Toe2_01 0.000000 0.000000 0.000000 0.000000 0.000000 0.000000 10.000000 
R_Toe3_01 0.000000 0.000000 0.000000 0.000000 0.000000 0.000000 10.000000 
planeLockWeightRight 0.000000 0.000000 0.000000 0.000000 0.000000 0.000000 10.000000 
R_Toe1_02 0.000000 0.000000 0.000000 0.000000 0.000000 0.000000 10.000000 
R_Toe1_03 0.000000 0.000000 0.000000 0.000000 0.000000 0.000000 10.000000 
R_Toe2_02 0.000000 0.000000 0.000000 0.000000 0.000000 0.000000 10.000000 
R_Toe2_03 0.000000 0.000000 0.000000 0.000000 0.000000 0.000000 10.000000 
R_Toe3_02 0.000000 0.000000 0.000000 0.000000 0.000000 0.000000 10.000000 
R_Toe3_03 0.000000 0.000000 0.000000 0.000000 0.000000 0.000000 10.000000 
Rear_Leg02 0.000000 0.000000 0.000000 0.000000 0.000000 0.000000 10.000000 
Rear_Leg03 0.000000 0.000000 0.000000 0.000000 0.000000 0.000000 10.000000 
Rear_Leg04 0.000000 0.000000 0.000000 0.000000 0.000000 0.000000 10.000000 
Rear_Foot 0.000000 0.000000 0.000000 0.000000 0.000000 0.000000 10.000000 
planeAlignerCenter 0.000000 0.000000 0.000000 0.000000 0.000000 0.000000 10.000000 
Rear_Toe1_01 0.000000 0.000000 0.000000 0.000000 0.000000 0.000000 10.000000 
Rear_Toe2_01 0.000000 0.000000 0.000000 0.000000 0.000000 0.000000 10.000000 
Rear_Toe3_01 0.000000 0.000000 0.000000 0.000000 0.000000 0.000000 10.000000 
planeLockWeightCenter 0.000000 0.000000 0.000000 0.000000 0.000000 0.000000 10.000000 
Rear_Toe1_02 0.000000 0.000000 0.000000 0.000000 0.000000 0.000000 10.000000 
Rear_Toe1_03 0.000000 0.000000 0.000000 0.000000 0.000000 0.000000 10.000000 
Rear_Toe2_02 0.000000 0.000000 0.000000 0.000000 0.000000 0.000000 10.000000 
Rear_Toe2_03 0.000000 0.000000 0.000000 0.000000 0.000000 0.000000 10.000000 
Rear_Toe3_02 0.000000 0.000000 0.000000 0.000000 0.000000 0.000000 10.000000 
Rear_Toe3_03 0.000000 0.000000 0.000000 0.000000 0.000000 0.000000 10.000000 
Back_Bone 0.000000 0.000000 0.000000 0.000000 0.000000 0.000000 10.000000 
Head 0.000000 0.000000 0.000000 0.000000 0.000000 0.000000 10.000000 
Motor_Bone 0.000000 0.000000 0.000000 0.000000 0.000000 0.000000 10.000000 
Ping_Mechanism 0.000000 0.000000 0.000000 0.000000 0.000000 0.000000 10.000000 
BN_LookIK 0.000000 0.000000 0.000000 0.000000 0.000000 0.000000 10.000000 
bottomMouth 0.000000 0.000000 0.000000 0.000000 0.000000 0.000000 10.000000 
L_Mouth01 0.000000 0.000000 0.000000 0.000000 0.000000 0.000000 10.000000 
L_mouthFront 0.000000 0.000000 0.000000 0.000000 0.000000 0.000000 10.000000 
mouthGun 0.000000 0.000000 0.000000 0.000000 0.000000 0.000000 10.000000 
R_Mouth01 0.000000 0.000000 0.000000 0.000000 0.000000 0.000000 10.000000 
R_mouthFront 0.000000 0.000000 0.000000 0.000000 0.000000 0.000000 10.000000 
TopMouth 0.000000 0.000000 0.000000 0.000000 0.000000 0.000000 10.000000 
weapon_bone 0.000000 0.000000 0.000000 0.000000 0.000000 0.000000 10.000000 
#Beginning of Data. Separated by tabs
#Fr	Tx	Ty	Tz	Rx	Ry	Rz	SF
[Pinger_Root]
56 0.000000 0.000000 0.000000 -0.000075 -0.000000 -0.000020 0.000000
57 0.000000 0.000000 0.000000 -0.000075 -0.000000 -0.000020 0.000000
58 0.000000 0.000000 0.000000 -0.000075 -0.000000 -0.000020 0.000000
[Pelvis]
56 210.568771 983.058533 4428.346680 -116.758797 -85.795975 110.278938 4541.034668
57 123.769485 922.489624 4358.611328 -128.593262 -85.007622 121.406761 4456.881836
58 108.190933 916.565369 4328.959961 -132.022415 -84.666489 124.505180 4426.250488
[L_Hip]
56 5.766392 125.831482 872.656799 160.158691 -45.484905 122.312202 881.701050
57 5.766392 125.831482 872.656799 160.158691 -45.484905 122.312202 881.701050
58 5.766392 125.831482 872.656799 160.158691 -45.484905 122.312202 881.701050
[R_Hip]
56 5.765438 125.836372 -872.654907 39.009338 51.171524 126.146217 881.699829
57 5.765438 125.836372 -872.654907 38.326851 50.165867 125.813339 881.699829
58 5.765438 125.836372 -872.654907 38.087845 49.812698 125.703735 881.699829
[Rear_Leg01]
56 -192.298416 -925.602966 -0.001907 169.762817 -1.715395 -158.515045 945.367432
57 -192.298416 -925.602966 -0.001907 168.942245 -1.240483 -158.818481 945.367432
58 -192.298416 -925.602966 -0.001907 168.524033 -1.220472 -158.737503 945.367432
[Spine1]
56 290.604584 5.007505 0.000477 8.933826 0.894101 19.638046 290.647736
57 290.604584 5.007505 0.000477 8.821466 1.761132 19.412338 290.647736
58 290.604584 5.007505 0.000477 8.205938 2.065905 19.281973 290.647736
[L_Leg01]
56 761.932007 -0.002384 -0.069261 28.232437 -8.102037 -22.304544 761.932068
57 761.932007 -0.002384 -0.069261 27.751053 -7.175745 -21.374964 761.932068
58 761.932007 -0.002384 -0.069261 27.777992 -6.042627 -21.609253 761.932068
[L_Leg02]
56 1441.140503 -0.000954 -0.000715 2.351580 -0.019856 -111.965416 1441.140503
57 1441.140503 -0.000954 -0.000715 3.234296 0.183333 -114.334106 1441.140503
58 1441.140503 -0.000954 -0.000715 3.681158 0.342438 -114.719406 1441.140503
[L_Leg03]
56 1686.963989 -0.000715 -0.000954 -0.049335 0.022109 123.412582 1686.963989
57 1686.963989 -0.000715 -0.000954 -0.064087 0.032512 127.011276 1686.963989
58 1686.963989 -0.000715 -0.000954 -0.070122 0.035922 128.948410 1686.963989
[L_Foot]
56 3041.570068 -30.715107 11.297464 0.048782 13.391144 48.270527 3041.746094
57 3041.570068 -30.715107 11.297464 1.231388 13.290894 47.284260 3041.746094
58 3041.570068 -30.715107 11.297464 1.346129 13.280004 46.613850 3041.746094
[L_Toe1_01]
56 -188.216690 -224.732346 -21.137953 94.102104 -6.142302 -176.608871 293.899567
57 -188.216690 -224.732346 -21.137953 94.126984 -6.138251 -176.830948 293.899567
58 -188.216690 -224.732346 -21.137953 94.066437 -6.259889 -176.057007 293.899567
[L_Toe2_01]
56 200.746536 -219.926590 148.838394 -91.960739 -26.485098 -47.985420 332.896027
57 200.746536 -219.926590 148.838394 -91.981308 -26.387672 -47.980068 332.896027
58 200.746536 -219.926590 148.838394 -91.669014 -26.384336 -48.729267 332.896027
[L_Toe3_01]
56 188.832520 -219.859131 -191.078659 -99.398476 15.742741 -63.119358 347.140900
57 188.832520 -219.859131 -191.078659 -99.381927 15.651985 -62.985615 347.140900
58 188.832520 -219.859131 -191.078659 -99.455933 15.360855 -63.740604 347.140900
[planeAlignerLeft]
56 0.812531 -811.448792 -0.314951 0.000000 -90.000000 -90.001900 811.449280
57 0.812531 -811.448792 -0.314951 0.000000 -90.000000 -90.001900 811.449280
58 0.812531 -811.448792 -0.314951 0.000000 -90.000000 -90.001900 811.449280
[L_Toe1_02]
56 413.761139 0.000477 0.000000 0.001385 -25.855616 0.001385 413.761139
57 413.761139 0.000477 0.000000 0.001386 -25.779497 0.001386 413.761139
58 413.761139 0.000477 0.000000 0.001385 -25.818405 0.001385 413.761139
[L_Toe1_03]
56 464.317322 0.000358 -0.000089 0.004404 59.090153 0.004404 464.317322
57 464.317322 0.000358 -0.000089 0.004489 59.688034 0.004489 464.317322
58 464.317322 0.000358 -0.000089 0.004360 58.766510 0.004360 464.317322
[L_Toe2_02]
56 342.235809 -0.000477 0.000238 0.001185 -74.146255 0.001185 342.235809
57 342.235809 -0.000477 0.000238 0.001185 -73.975990 0.001185 342.235809
58 342.235809 -0.000477 0.000238 0.001185 -73.805733 0.001185 342.235809
[L_Toe2_03]
56 420.210846 -0.000715 0.000000 0.000000 89.827538 0.003498 420.210846
57 420.210846 -0.000715 0.000000 0.000000 89.826416 0.003495 420.210846
58 420.210846 -0.000715 0.000000 -0.082982 89.188683 -0.079485 420.210846
[L_Toe3_02]
56 329.270111 0.000954 0.000000 0.001177 -81.771736 0.001177 329.270111
57 329.270111 0.000954 0.000000 0.001177 -81.630058 0.001177 329.270111
58 329.270111 0.000954 0.000000 0.001177 -81.488350 0.001177 329.270111
[L_Toe3_03]
56 439.137451 -0.001907 0.000954 -179.997787 73.383659 -179.994263 439.137451
57 439.137451 -0.001907 0.000954 -179.997742 73.593544 -179.994202 439.137451
58 439.137451 -0.001907 0.000954 -179.997543 74.336472 -179.994019 439.137451
[planeLockWeightLeft]
56 -0.000954 0.000238 -0.000305 -0.011826 -0.004376 0.005620 0.001029
57 -0.000954 0.000238 -0.000305 -0.011826 -0.004376 0.005620 0.001029
58 -0.000954 0.000238 -0.000305 -0.011826 -0.004376 0.005620 0.001029
[R_Leg01]
56 761.455627 -0.001907 -0.000358 120.500237 -8.452056 40.197990 761.455688
57 761.455627 -0.001907 -0.000358 121.191902 -9.528450 38.467049 761.455688
58 761.455627 -0.001907 -0.000358 121.446259 -10.327990 37.754295 761.455688
[R_Leg02]
56 1441.140625 0.000000 -0.000238 -1.284340 -0.178585 -119.875710 1441.140625
57 1441.140625 0.000000 -0.000238 -1.356583 -0.207127 -120.040398 1441.140625
58 1441.140625 0.000000 -0.000238 -1.425767 -0.239217 -121.359680 1441.140625
[R_Leg03]
56 1686.963989 0.000954 0.001431 0.072838 -0.041753 130.465622 1686.963989
57 1686.963989 0.000954 0.001431 0.075771 -0.043568 131.380661 1686.963989
58 1686.963989 0.000954 0.001431 0.080036 -0.041995 132.041885 1686.963989
[R_Foot]
56 3041.560059 -30.531288 -11.204481 -3.273539 -24.849920 59.887093 3041.734131
57 3041.560059 -30.531288 -11.204481 -1.609407 -24.732065 56.904472 3041.734131
58 3041.560059 -30.531288 -11.204481 -1.181433 -24.671864 56.449768 3041.734131
[planeAlignerRight]
56 -0.635147 -812.270569 -0.364304 0.000000 -89.960434 -90.005180 812.270874
57 -0.635147 -812.270569 -0.364304 0.000000 -89.960434 -90.005180 812.270874
58 -0.635147 -812.270569 -0.364304 0.000000 -89.960434 -90.005180 812.270874
[R_Toe1_01]
56 -188.383347 -224.864899 21.052242 76.921310 -1.665133 179.477234 294.101532
57 -188.383347 -224.864899 21.052242 76.843353 -0.948832 -176.164307 294.101532
58 -188.383347 -224.864899 21.052242 76.804314 -0.535699 -173.847198 294.101532
[R_Toe2_01]
56 200.637817 -220.002121 -148.787384 -88.980911 32.993210 -54.168556 332.857574
57 200.637817 -220.002121 -148.787384 -90.503807 33.216606 -56.761009 332.857574
58 200.637817 -220.002121 -148.787384 -91.285652 33.231781 -58.155476 332.857574
[R_Toe3_01]
56 188.606735 -220.092957 191.126343 -73.262444 -8.321822 -68.720856 347.192566
57 188.606735 -220.092957 191.126343 -73.187592 -8.758922 -71.307358 347.192566
58 188.606735 -220.092957 191.126343 -73.196526 -8.808473 -72.750412 347.192566
[planeLockWeightRight]
56 -0.000477 0.000000 0.000000 -0.011823 -0.004379 -0.000027 0.000477
57 -0.000477 0.000000 0.000000 -0.011823 -0.004379 -0.000027 0.000477
58 -0.000477 0.000000 0.000000 -0.011823 -0.004379 -0.000027 0.000477
[R_Toe1_02]
56 413.762085 0.000477 -0.000119 0.001419 -21.590034 0.001419 413.762085
57 413.762085 0.000477 -0.000119 0.001402 -23.693354 0.001402 413.762085
58 413.762085 0.000477 -0.000119 0.001395 -24.532900 0.001395 413.762085
[R_Toe1_03]
56 464.317810 0.000000 0.001088 -0.013871 84.564407 -0.010371 464.317810
57 464.317810 0.000000 0.001088 0.009071 75.133369 0.009071 464.317810
58 464.317810 0.000000 0.001088 0.006883 70.366249 0.006883 464.317810
[R_Toe2_02]
56 342.234741 -0.000954 0.000238 0.001205 -63.984837 0.001205 342.234741
57 342.234741 -0.000954 0.000238 0.001197 -67.280518 0.001197 342.234741
58 342.234741 -0.000954 0.000238 0.001195 -68.179985 0.001195 342.234741
[R_Toe2_03]
56 420.210846 0.000715 -0.000268 -0.004728 67.498337 -0.001163 420.210846
57 420.210846 0.000715 -0.000268 0.008296 73.735497 0.008296 420.210846
58 420.210846 0.000715 -0.000268 0.009345 75.570374 0.009345 420.210846
[R_Toe3_02]
56 329.270355 -0.000477 -0.000954 0.001185 -74.201981 0.001185 329.270355
57 329.270355 -0.000477 -0.000954 0.001183 -75.334801 0.001183 329.270355
58 329.270355 -0.000477 -0.000954 0.001183 -75.478615 0.001183 329.270355
[R_Toe3_03]
56 439.137939 0.000238 0.001431 -0.010618 82.567505 -0.007114 439.137939
57 439.137939 0.000238 0.001431 -0.016016 85.382088 -0.012516 439.137939
58 439.137939 0.000238 0.001431 -0.017260 85.752869 -0.013761 439.137939
[Rear_Leg02]
56 1162.777710 -0.029802 0.005960 0.389977 -1.992922 -121.625137 1162.777710
57 1162.777710 -0.029802 0.005960 0.709855 -2.637188 -126.439468 1162.777710
58 1162.777710 -0.029802 0.005960 0.827854 -2.865067 -127.739510 1162.777710
[Rear_Leg03]
56 607.192505 -0.013351 -0.073195 0.006486 -0.002075 63.691692 607.192505
57 607.192505 -0.013351 -0.073195 0.010613 -0.004849 65.470276 607.192505
58 607.192505 -0.013351 -0.073195 0.010594 -0.004891 65.923622 607.192505
[Rear_Leg04]
56 995.874512 -0.020504 -0.011921 -0.040358 -0.015580 57.053719 995.874573
57 995.874512 -0.020504 -0.011921 -0.043309 -0.018608 60.562248 995.874573
58 995.874512 -0.020504 -0.011921 -0.043463 -0.018247 61.515347 995.874573
[Rear_Foot]
56 3096.176270 -0.067472 -0.041425 -161.690964 84.528336 31.772623 3096.176270
57 3096.176270 -0.067472 -0.041425 -151.899017 85.138649 41.187675 3096.176270
58 3096.176270 -0.067472 -0.041425 -149.216446 85.147392 43.961838 3096.176270
[planeAlignerCenter]
56 0.350077 0.966311 -838.790894 0.000009 0.000003 -179.999985 838.791565
57 0.350077 0.966311 -838.790894 0.000009 0.000003 -179.999985 838.791565
58 0.350077 0.966311 -838.790894 0.000009 0.000003 -179.999985 838.791565
[Rear_Toe1_01]
56 0.653352 83.966492 -371.173737 0.289376 41.911209 90.408951 380.553192
57 0.653352 83.966492 -371.173737 0.289192 41.911621 90.409538 380.553192
58 0.653352 83.966492 -371.173737 0.289011 41.912048 90.410156 380.553192
[Rear_Toe2_01]
56 178.200760 -294.826019 -362.060547 -7.196267 34.406261 -66.271294 499.765686
57 178.200760 -294.826019 -362.060547 -7.196267 34.406261 -66.271294 499.765686
58 178.200760 -294.826019 -362.060547 -7.196267 34.406261 -66.271294 499.765686
[Rear_Toe3_01]
56 -153.359680 -308.780914 -362.060852 3.289418 33.518005 -112.540970 499.952881
57 -153.359680 -308.780914 -362.060852 3.289417 33.518013 -112.540993 499.952881
58 -153.359680 -308.780914 -362.060852 3.289416 33.517998 -112.540970 499.952881
[planeLockWeightCenter]
56 -0.000062 0.000238 0.000000 -0.011814 -0.004373 -0.000015 0.000246
57 -0.000062 0.000238 0.000000 -0.011814 -0.004373 -0.000015 0.000246
58 -0.000062 0.000238 0.000000 -0.011814 -0.004373 -0.000015 0.000246
[Rear_Toe1_02]
56 379.707825 0.194073 0.000477 -0.000242 -31.680750 0.006934 379.707855
57 379.707825 0.194073 0.000477 -0.000242 -31.680176 0.006934 379.707855
58 379.707825 0.194073 0.000477 -0.000242 -31.679600 0.006934 379.707855
[Rear_Toe1_03]
56 500.129700 0.165701 0.000119 -0.000102 51.911041 0.007296 500.129761
57 500.129700 0.165701 0.000119 -0.000103 51.909813 0.007296 500.129761
58 500.129700 0.165701 0.000119 -0.000103 51.908592 0.007296 500.129761
[Rear_Toe2_02]
56 340.494507 0.000238 -0.000954 0.001192 -69.854523 0.001192 340.494507
57 340.494507 0.000238 -0.000954 0.001192 -69.854523 0.001192 340.494507
58 340.494507 0.000238 -0.000954 0.001192 -69.854523 0.001192 340.494507
[Rear_Toe2_03]
56 433.103577 0.000000 0.000238 0.006696 69.810326 0.006696 433.103546
57 433.103577 0.000000 0.000238 0.006696 69.810341 0.006696 433.103546
58 433.103577 0.000000 0.000238 0.006696 69.810341 0.006696 433.103546
[Rear_Toe3_02]
56 340.494141 -0.000358 -0.000477 0.008288 -67.274704 -0.009460 340.494171
57 340.494141 -0.000358 -0.000477 0.008288 -67.274704 -0.009460 340.494171
58 340.494141 -0.000358 -0.000477 0.008288 -67.274704 -0.009460 340.494171
[Rear_Toe3_03]
56 433.103577 0.001431 -0.000238 -0.000972 65.958984 -0.004547 433.103546
57 433.103577 0.001431 -0.000238 -0.000972 65.959023 -0.004547 433.103546
58 433.103577 0.001431 -0.000238 -0.000972 65.958984 -0.004547 433.103546
[Back_Bone]
56 1312.175781 -701.934692 0.000954 1.090660 -0.030256 -85.841339 1488.125488
57 1312.175781 -701.934692 0.000954 2.166396 -0.000271 -85.605545 1488.125488
58 1312.175781 -701.934692 0.000954 2.118155 0.034038 -86.225868 1488.125488
[Head]
56 1406.159424 809.709290 0.001431 -0.001546 -1.475623 7.936633 1622.625488
57 1406.159424 809.709290 0.001431 0.000624 -1.475623 7.768032 1622.625488
58 1406.159424 809.709290 0.001431 -0.027033 -1.474159 8.383199 1622.625488
[Motor_Bone]
56 1158.364380 -417.834747 0.000477 -0.096673 1.929933 -105.911217 1231.419434
57 1158.364380 -417.834747 0.000477 -0.098364 0.072220 -105.915703 1231.419434
58 1158.364380 -417.834747 0.000477 -0.094801 -0.711230 -105.913406 1231.419434
[Ping_Mechanism]
56 1233.710327 -441.449585 -6.128706 0.000103 -0.000053 82.120995 1310.326782
57 1235.251465 -442.122772 -12.033507 0.000103 -0.000053 82.120995 1312.045532
58 1235.794922 -442.048340 -14.507600 0.000103 -0.000053 82.120995 1312.557129
[BN_LookIK]
56 193.241119 1380.371704 -0.002861 0.000000 89.965736 -31.038179 1393.832153
57 193.241119 1380.371704 -0.002861 0.000000 89.965736 -31.038179 1393.832153
58 193.241119 1380.371704 -0.002861 0.000000 89.965736 -31.038179 1393.832153
[bottomMouth]
56 -435.092926 615.759399 -0.000954 -0.000022 0.000016 73.527184 753.966492
57 -435.092926 615.759399 -0.000954 -0.000022 0.000016 73.527184 753.966492
58 -435.092926 615.759399 -0.000954 -0.000022 0.000016 73.527184 753.966492
[L_Mouth01]
56 554.440979 7.658243 838.222046 150.204178 23.759130 109.605339 1005.027161
57 554.440979 7.658243 838.222046 150.204178 23.759130 109.605339 1005.027161
58 554.440979 7.658243 838.222046 150.204178 23.759130 109.605339 1005.027161
[L_mouthFront]
56 551.629089 934.514771 339.150421 0.000081 2.804060 79.119301 1136.941284
57 551.629089 934.514771 339.150421 0.000081 2.804060 79.119301 1136.941284
58 551.629089 934.514771 339.150421 0.000081 2.804060 79.119301 1136.941284
[mouthGun]
56 55.332661 1627.420898 0.000000 0.000023 0.000009 -11.038128 1628.361328
57 55.332661 1627.420898 0.000000 0.000023 0.000009 -11.038128 1628.361328
58 55.332661 1627.420898 0.000000 0.000023 0.000009 -11.038128 1628.361328
[R_Mouth01]
56 554.442383 7.659197 -838.223938 29.795891 -23.759109 109.605331 1005.029541
57 554.442383 7.659197 -838.223938 29.795891 -23.759109 109.605331 1005.029541
58 554.442383 7.659197 -838.223938 29.795891 -23.759109 109.605331 1005.029541
[R_mouthFront]
56 551.629089 934.514282 -339.151367 0.000029 -2.803930 79.119133 1136.941162
57 551.629089 934.514282 -339.151367 0.000029 -2.803930 79.119133 1136.941162
58 551.629089 934.514282 -339.151367 0.000029 -2.803930 79.119133 1136.941162
[TopMouth]
56 461.269867 -56.106091 -0.008583 -0.000059 -0.000268 92.025169 464.669525
57 461.269867 -56.106091 -0.008583 -0.000059 -0.000268 92.025169 464.669525
58 461.269867 -56.106091 -0.008583 -0.000059 -0.000268 92.025169 464.669525
[weapon_bone]
56 -987.239868 1448.372803 0.001431 0.000000 89.965736 -31.038221 1752.833740
57 -987.239868 1448.372803 0.001431 0.000000 89.965736 -31.038221 1752.833740
58 -987.239868 1448.372803 0.001431 0.000000 89.965736 -31.038221 1752.833740
